<?xml version="1.0" encoding="UTF-8"?>
<svg id="Camada_2" data-name="Camada 2" xmlns="http://www.w3.org/2000/svg" viewBox="0 0 211.74 282.63">
  <defs>
    <style>
      .cls-1 {
        fill: #bb7d52;
      }

      .cls-2 {
        stroke: #fff;
        stroke-linecap: round;
        stroke-miterlimit: 10;
      }

      .cls-2, .cls-3 {
        fill: none;
      }

      .cls-4 {
        fill: #444;
      }

      .cls-5 {
        fill: #af754b;
      }

      .cls-3, .cls-6 {
        opacity: .6;
      }

      .cls-7, .cls-6 {
        fill: #9e6947;
      }

      .cls-8 {
        fill: #2c1a17;
      }

      .cls-9 {
        fill: #62432b;
      }

      .cls-10 {
        fill: #d18b5a;
      }

      .cls-11 {
        fill: #3e291b;
      }
    </style>
  </defs>
  <g id="oculos">
    <polygon class="cls-10" points="78.89 157.4 78.89 187.47 69.03 187.47 50.99 204.3 86.83 226.91 140.91 223.79 164.28 201.42 147.2 187.47 137.91 187.29 135.17 157.4 78.89 157.4"/>
    <path d="m68.07,187.47s.72,25.25,40.41,25.5,38.96-25.5,38.96-25.5c0,0,36.01.45,55.54,42.78,14.65,31.74,6.52,51.5,6.52,51.5l-106.18.88H0s-.59-57.45,21.89-75.93,40-19.24,46.18-19.24Z"/>
    <g>
      <path class="cls-2" d="m156.02,257.49c4.6-3.13,5.63-12.71,5.88-18.07,2.56,5.71,3.66,17.46,3.66,17.46h4.84l-.37-2.18"/>
      <path class="cls-2" d="m156.02,250.83s7.91-3.17,12.34-1.08"/>
    </g>
    <path class="cls-1" d="m78.91,160.92v12.43s12.67,8.57,27.03,7.36,28.96-6.88,28.96-6.88v-11.22l-55.99-1.69Z"/>
    <path class="cls-10" d="m38.52,76.8s-8.45-2.25-8.21,8.25-.96,27.91,12.03,27.38c3.61,37.46,36.07,57.89,64.82,58.61s62.18-19.38,63.86-58.61c14.91-.05,12.65-18.91,12.23-26.26s-.41-15.46-9.45-14.82c-1.58-19.37-5.98-42.16-5.98-42.16l-52.13-17.07-60.13,12.5-11.79,11.06-1.44,24.53-3.81,16.59Z"/>
    <path class="cls-6" d="m41.45,87.2s-2.38,32.51,8.54,50.51c0,0,16.99,31.52,56.73,33.03,25.66.98,38.53-9.71,49.57-20.98,9.09-9.28,13.99-21.88,14.09-34.86.08-10.18-.52-20.37-.52-20.37h-4.1l-2.76,28.04s-12.63,6.22-18.27,16.93c-5.64,10.71-7.48,9.28-9.53,14.36-1.52,3.76-29.33,13.09-48.17,3.05-10.52-5.61-6.68-9.9-13.73-17.64s-10.34-7.52-15.48-13.46c-12.7-7.66-12.17-33.61-13.59-39.14l-2.79.54Z"/>
    <g class="cls-3">
      <path class="cls-7" d="m84.49,127.28c3.56-1.72,7.23-2.97,10.92-4.08,1.85-.56,3.7-1.05,5.57-1.51.94-.22,1.87-.46,2.81-.66l.7-.15.09-.02h.04s.22-.05.32-.06c.25-.02.51-.02.76.01l.15.02.36.06,1.42.25c3.78.69,7.53,1.51,11.26,2.49,3.72,1.01,7.43,2.12,11.06,3.64l-.17.98c-3.93.19-7.79-.02-11.64-.35-3.84-.35-7.65-.86-11.44-1.5l-1.42-.24-.35-.07h-.04s-.02-.01-.02-.01c-.01,0-.03,0,.04,0,.19.03.39.04.58.02.08,0,.23-.04.23-.04h-.04s-.09.03-.09.03l-.71.14c-.94.2-1.89.35-2.83.53-1.89.32-3.79.62-5.71.85-3.83.47-7.68.78-11.64.64l-.2-.98Z"/>
    </g>
    <path class="cls-5" d="m96.98,107.37h19.95s-1.28,5.93-9.71,6.23-10.24-6.23-10.24-6.23Z"/>
    <path class="cls-11" d="m91.4,131.67h32.23s-2.9,13.23-15.76,13.23-16.47-13.23-16.47-13.23Z"/>
    <path class="cls-8" d="m161.84,39.79s6.52,11.02,6.79,27.86l5.16,1.53s.27-26.02-4.07-27.25c-7.22-6.6-7.88-2.14-7.88-2.14Z"/>
    <path class="cls-8" d="m39.24,65.7c-.89-3.87,1.55-26.18,4.25-41.64.64-1.19,1.34-2.37,2.11-3.53,1.11-1.67,1.65-2.55,2.52-3.43,0,0,1.42-1.43,3.59-2.46C84.65-.98,107.87.01,107.87.01c34.38,1.46,55.15,20,58.85,24.74,1.29,1.65,3.99,6.1,4.57,11.5.14,1.27.39,3.81-.66,4.27-1.08.48-2.93-1.55-3.17-1.82-4.44-3.16-10.76-7.12-18.85-10.54-17.44-7.39-32.41-7.79-40.74-7.93-12.13-.21-32.98-.56-52.96,12.08-3.59,2.27-5.52,3.39-6.84,7.48-1.55,10.18-1.97,11.01-2.54,17.56-.36,4.21-.63,6.3-.63,6.3l-.81,5.66-4.85,2.07v-5.68Z"/>
    <path class="cls-8" d="m65.19,18.75c9.11,2.65,15.2,21.71,44.25,22.33,29.05.63,23.23-21.01,36.84-22.33s-81.08,0-81.08,0Z"/>
    <path class="cls-9" d="m130.27,86.89c3.18-1.62,13.86-6.32,21.04-.57.25.2.59-.09.44-.36-5.84-10.43-16.3-8.03-21.84.51-.16.25.1.56.36.42Z"/>
    <path class="cls-9" d="m62.4,87.09c2.66-1.41,14.42-7.01,21.91-.36.14.12.34-.04.26-.21-5.86-11.24-16.81-8.68-22.39.32-.09.14.07.32.22.24Z"/>
    <path class="cls-4" d="m183.24,73.24c0-7.28-15.42-7.12-15.42-7.12,0,0-45.36-1.18-51.04,3.31-7.16.71-6.86,1.17-8.91,1.23-3.05.1-9.24-1.98-17.54-2.79-17.65-5.68-32.42-3.44-38.41-3.37-9.44.11-19.42,6.86-19.42,6.86v7.28s3.24,5.66,8.36,2.42c.27,15.1,5.66,35.2,30.2,31.36,24.54-3.85,25.89-12.84,29.93-34.95,0,0,9.44-2.7,13.76,0-.54,4.58-1.08,36.49,27.23,34.87,0,0,32.27.72,31.82-28.85,9.71-1.47,9.44-2.97,9.44-10.25Zm-91.84,22.34c-2.57,5.76-9.47,11.3-25.04,10.28-15.57-1.02-17.61-8.39-19.39-18.05,0,0-3.56-14.24,16.27-15.51,19.83-1.27,18.05,0,26.7,2.54,8.64,2.55,3,17.29,1.46,20.74Zm74.01.11c-2.8,2.54-11.82,11.19-27.39,10.17-15.58-1.02-17.04-8.85-18.82-18.51,0,0-4.13-13.78,15.7-15.05,19.83-1.27,18.05,0,26.7,2.54,8.64,2.55,6.61,18.31,3.81,20.85Z"/>
  </g>
</svg>